{
  "accessors": [
    {
      "bufferView": 2,
      "componentType": 5126,
      "count": 4800,
      "max": [
        1.8368710279464722,
        0.39794299006462097,
        1.3303990364074707
      ],
      "min": [
        0.16413499414920807,
        -1.275846004486084,
        -0.2775239944458008
      ],
      "type": "VEC3"
    },
    {
      "bufferView": 2,
      "byteOffset": 57600,
      "componentType": 5126,
      "count": 4800,
      "max": [
        0.9989515542984009,
        0.998835563659668,
        0.9848254323005676
      ],
      "min": [
        -0.9989515542984009,
        -0.9988288879394531,
        -0.9846282005310059
      ],
      "type": "VEC3"
    },
    {
      "bufferView": 1,
      "componentType": 5126,
      "count": 4800,
      "max": [
        0.9697390198707581,
        0.41996800899505615
      ],
      "min": [
        0.030261000618338585,
        0.052414000034332275
      ],
      "type": "VEC2"
    },
    {
      "bufferView": 0,
      "componentType": 5125,
      "count": 28560,
      "type": "SCALAR"
    },
    {
      "bufferView": 2,
      "byteOffset": 115200,
      "componentType": 5126,
      "count": 2208,
      "max": [
        1.8245919942855835,
        0.38122498989105225,
        1.363664984703064
      ],
      "min": [
        0.17659099400043488,
        -1.2587419748306274,
        -0.3107750117778778
      ],
      "type": "VEC3"
    },
    {
      "bufferView": 2,
      "byteOffset": 141696,
      "componentType": 5126,
      "count": 2208,
      "max": [
        0.986815869808197,
        0.9997361302375793,
        0.9999768733978271
      ],
      "min": [
        -0.9866504669189453,
        -0.9998145699501038,
        -0.9999768733978271
      ],
      "type": "VEC3"
    },
    {
      "bufferView": 1,
      "byteOffset": 38400,
      "componentType": 5126,
      "count": 2208,
      "max": [
        0.9697390198707581,
        0.41996800899505615
      ],
      "min": [
        0.030261000618338585,
        0.052414000034332275
      ],
      "type": "VEC2"
    },
    {
      "bufferView": 0,
      "byteOffset": 114240,
      "componentType": 5125,
      "count": 13104,
      "type": "SCALAR"
    }
  ],
  "asset": {
    "extras": {
      "author": "Cassio.Alves (https://sketchfab.com/Cassio.Alves)",
      "license": "CC-BY-4.0 (http://creativecommons.org/licenses/by/4.0/)",
      "source": "https://sketchfab.com/3d-models/ball-bola-27e2c37116b44d88bf5361552905c1b4",
      "title": "Ball (Bola)"
    },
    "generator": "Sketchfab-15.17.0",
    "version": "2.0"
  },
  "bufferViews": [
    {
      "buffer": 0,
      "byteLength": 166656,
      "name": "floatBufferViews",
      "target": 34963
    },
    {
      "buffer": 0,
      "byteLength": 56064,
      "byteOffset": 166656,
      "byteStride": 8,
      "name": "floatBufferViews",
      "target": 34962
    },
    {
      "buffer": 0,
      "byteLength": 168192,
      "byteOffset": 222720,
      "byteStride": 12,
      "name": "floatBufferViews",
      "target": 34962
    }
  ],
  "buffers": [
    {
      "byteLength": 390912,
      "uri": "scene.bin"
    }
  ],
  "materials": [
    {
      "doubleSided": true,
      "name": "branco",
      "pbrMetallicRoughness": {
        "metallicFactor": 0.0,
        "roughnessFactor": 0.2
      }
    },
    {
      "doubleSided": true,
      "name": "preto",
      "pbrMetallicRoughness": {
        "baseColorFactor": [
          0.0,
          0.0,
          0.0,
          1.0
        ],
        "metallicFactor": 0.0,
        "roughnessFactor": 0.2
      }
    }
  ],
  "meshes": [
    {
      "name": "Object_0",
      "primitives": [
        {
          "attributes": {
            "NORMAL": 1,
            "POSITION": 0,
            "TEXCOORD_0": 2
          },
          "indices": 3,
          "material": 0,
          "mode": 4
        }
      ]
    },
    {
      "name": "Object_1",
      "primitives": [
        {
          "attributes": {
            "NORMAL": 5,
            "POSITION": 4,
            "TEXCOORD_0": 6
          },
          "indices": 7,
          "material": 1,
          "mode": 4
        }
      ]
    }
  ],
  "nodes": [
    {
      "children": [
        1
      ],
      "matrix": [
        1.0,
        0.0,
        0.0,
        0.0,
        0.0,
        2.220446049250313e-16,
        -1.0,
        0.0,
        0.0,
        1.0,
        2.220446049250313e-16,
        0.0,
        0.0,
        0.0,
        0.0,
        1.0
      ],
      "name": "Sketchfab_model"
    },
    {
      "children": [
        2,
        3
      ],
      "name": "bola.obj.cleaner.materialmerger.gles"
    },
    {
      "mesh": 0,
      "name": "Object_2"
    },
    {
      "mesh": 1,
      "name": "Object_3"
    }
  ],
  "scene": 0,
  "scenes": [
    {
      "name": "Sketchfab_Scene",
      "nodes": [
        0
      ]
    }
  ]
}
